<svg width="150" height="54" viewBox="0 0 150 54" fill="none" xmlns="http://www.w3.org/2000/svg">
<rect width="150" height="54" fill="white"/>
<circle cx="141" cy="27" r="9" fill="#8757E8"/>
<path d="M8.51047 40V18.868L10.0945 20.452H0.770469V14.8H23.2345V20.452H13.9465L15.5305 18.868V40H8.51047ZM26.5203 40V14.8H38.0403C40.3443 14.8 42.3243 15.172 43.9803 15.916C45.6603 16.66 46.9563 17.74 47.8683 19.156C48.7803 20.548 49.2363 22.204 49.2363 24.124C49.2363 26.02 48.7803 27.664 47.8683 29.056C46.9563 30.448 45.6603 31.528 43.9803 32.296C42.3243 33.04 40.3443 33.412 38.0403 33.412H30.4803L33.6483 30.316V40H26.5203ZM33.6483 31.072L30.4803 27.796H37.6083C39.0963 27.796 40.2003 27.472 40.9203 26.824C41.6643 26.176 42.0363 25.276 42.0363 24.124C42.0363 22.948 41.6643 22.036 40.9203 21.388C40.2003 20.74 39.0963 20.416 37.6083 20.416H30.4803L33.6483 17.14V31.072ZM59.0176 24.556H70.7176V29.884H59.0176V24.556ZM59.5216 34.492H72.6976V40H52.4656V14.8H72.2296V20.308H59.5216V34.492ZM89.0346 40.504C87.0426 40.504 85.1946 40.192 83.4906 39.568C81.8106 38.92 80.3466 38.008 79.0986 36.832C77.8746 35.656 76.9146 34.276 76.2186 32.692C75.5226 31.084 75.1746 29.32 75.1746 27.4C75.1746 25.48 75.5226 23.728 76.2186 22.144C76.9146 20.536 77.8746 19.144 79.0986 17.968C80.3466 16.792 81.8106 15.892 83.4906 15.268C85.1946 14.62 87.0426 14.296 89.0346 14.296C91.3626 14.296 93.4386 14.704 95.2626 15.52C97.1106 16.336 98.6466 17.512 99.8706 19.048L95.3346 23.152C94.5186 22.192 93.6186 21.46 92.6346 20.956C91.6746 20.452 90.5946 20.2 89.3946 20.2C88.3626 20.2 87.4146 20.368 86.5506 20.704C85.6866 21.04 84.9426 21.532 84.3186 22.18C83.7186 22.804 83.2386 23.56 82.8786 24.448C82.5426 25.336 82.3746 26.32 82.3746 27.4C82.3746 28.48 82.5426 29.464 82.8786 30.352C83.2386 31.24 83.7186 32.008 84.3186 32.656C84.9426 33.28 85.6866 33.76 86.5506 34.096C87.4146 34.432 88.3626 34.6 89.3946 34.6C90.5946 34.6 91.6746 34.348 92.6346 33.844C93.6186 33.34 94.5186 32.608 95.3346 31.648L99.8706 35.752C98.6466 37.264 97.1106 38.44 95.2626 39.28C93.4386 40.096 91.3626 40.504 89.0346 40.504ZM108.46 40V18.868L110.044 20.452H100.72V14.8H123.184V20.452H113.896L115.48 18.868V40H108.46Z" fill="#A2A4A6"/>
</svg>
