<svg width="14" height="14" viewBox="0 0 14 14" fill="none" xmlns="http://www.w3.org/2000/svg">
<path d="M6.55467 11.542C6.10898 11.0187 5.36502 10.459 4.64451 10.1049C3.91699 9.74727 3.22596 9.54867 2.44139 9.47187C2.2867 9.45687 2.15845 9.44287 2.1564 9.44087C2.1544 9.44087 2.1584 7.82577 2.1664 5.85627L2.1796 2.27547L2.32244 2.28947C3.19952 2.37647 4.17845 2.70787 4.91913 3.16977C5.55746 3.56777 6.21662 4.18237 6.63687 4.77127L6.74263 4.91947V8.32087C6.74263 10.1916 6.73463 11.7219 6.72503 11.7216C6.71503 11.7213 6.63849 11.6404 6.55467 11.542ZM7.28123 8.31227V4.89667L7.48547 4.62377C7.74624 4.27537 8.27076 3.75047 8.61759 3.49097C9.54473 2.79707 10.5505 2.40497 11.7051 2.28697L11.8515 2.27197V5.85777V9.44367L11.6816 9.45967C10.0739 9.60927 8.68011 10.2726 7.58991 11.4068L7.28123 11.728V8.31227ZM8.27733 11.4958C8.90834 10.9038 9.74368 10.4334 10.5828 10.1973C11.0219 10.0738 11.5929 9.98757 11.972 9.98757C12.1707 9.98757 12.281 9.94457 12.3431 9.84247C12.3899 9.76547 12.3904 9.73237 12.3905 6.82677L12.3906 3.88857L12.4785 3.90457C12.5268 3.91457 12.664 3.95257 12.7832 3.99057L13 4.05957V7.72647C13 9.74327 12.992 11.3934 12.9821 11.3934C12.9721 11.3934 12.8272 11.3624 12.6598 11.3244C11.9984 11.1754 11.4537 11.1242 10.7383 11.1435C9.87058 11.1675 9.19621 11.2885 8.39455 11.5655L8.08986 11.6708L8.27733 11.4958ZM5.60545 11.5528C5.27253 11.4336 4.72271 11.2931 4.35154 11.2325C3.84686 11.1505 3.49868 11.1287 2.88014 11.1425C2.26556 11.1555 1.89382 11.1985 1.3867 11.3136C1.2449 11.3456 1.09988 11.3786 1.06443 11.3856L1.00003 11.3996L1.00014 7.72287L1.00026 4.04607L1.27555 3.96607C1.42695 3.92207 1.56402 3.88107 1.58013 3.87607C1.60343 3.86607 1.60943 4.46507 1.60943 6.81097C1.60943 10.0167 1.60243 9.83797 1.73921 9.92787C1.78681 9.95887 1.88571 9.97287 2.16814 9.98987C3.2906 10.0539 4.35566 10.4308 5.22516 11.0721C5.41266 11.2104 5.86265 11.5902 5.88844 11.6319C5.90644 11.6609 5.89444 11.6579 5.60552 11.5539L5.60545 11.5528Z" fill="white"/>
</svg>
