<svg width="800" height="800" viewBox="0 0 800 800" fill="none" xmlns="http://www.w3.org/2000/svg">
<g clip-path="url(#clip0_6_2)">
<path d="M334.049 216.927C350.651 186.654 367.578 160.677 384.766 138.802C385.417 137.956 386.068 137.174 386.719 136.328C407.487 100.391 422.07 64.6484 405.208 52.9297C394.271 45.3776 378.385 45.1172 361.784 48.763C336.979 54.1667 311.849 67.8385 296.745 80.1432C276.953 96.224 259.31 116.732 244.206 138.607C226.237 164.714 212.109 192.513 202.669 216.992C193.034 242.057 186.133 268.815 182.161 297.461C178.32 325.391 177.279 355.078 179.297 386.589C197.721 434.896 222.461 477.734 253.776 514.779C256.12 517.448 258.464 520.052 260.872 522.656C296.94 561.458 341.016 592.448 392.448 616.146C393.034 616.406 393.62 616.732 394.206 617.122C400.391 616.667 406.706 616.081 413.086 615.299C424.154 613.932 434.896 612.174 445.378 610.026C479.883 602.93 509.049 592.513 536.589 578.581C564.453 564.518 590.885 546.81 619.727 525.521C633.789 515.104 647.786 503.906 661.654 491.862C675.456 479.883 688.607 467.448 701.042 454.492C728.125 423.893 746.68 394.336 757.096 365.755C767.187 338.021 769.531 311.198 764.323 285.156C759.505 260.872 743.75 232.357 723.828 204.948C698.372 169.922 666.406 137.37 641.406 117.708C630.664 109.245 620.052 102.148 609.635 96.4193C575.911 77.9948 542.513 73.112 510.026 82.6823C476.888 92.4479 443.88 117.122 411.654 157.747C398.242 181.12 383.203 202.995 371.745 219.661C368.62 224.219 365.885 228.19 361.654 234.635C356.641 242.187 346.419 244.271 338.867 239.258C331.576 234.375 329.427 224.414 334.049 216.927ZM126.953 446.549C125.846 488.281 132.357 505.534 163.411 545.833C174.349 560.026 186.263 574.219 199.219 588.411C223.503 607.031 227.344 625.586 208.333 644.206L199.219 654.362C182.813 664.518 164.648 666.406 140.365 639.128L104.297 593.359C88.086 572.786 67.0573 553.06 65.4948 525.456C65.2344 520.312 65.4297 515.039 66.0807 509.57L50.2604 525.911C45.1172 532.422 40.9505 539.128 38.0208 546.094C35.0912 552.799 33.3333 559.766 32.9427 566.992C31.5755 591.146 55.4036 628.255 86.7839 663.216C124.935 705.729 173.047 743.424 201.693 751.628C247.005 764.714 297.005 706.836 338.932 658.398C344.661 651.758 350.26 645.312 355.729 639.128C308.984 613.346 269.076 581.575 235.807 544.141C233.073 541.081 230.404 538.021 227.799 534.896C198.307 500.977 174.023 461.914 155.273 417.448L126.953 446.549ZM389.909 650.26C381.641 659.18 372.852 669.336 363.672 679.948C315.495 735.677 258.073 802.083 192.578 783.268C158.464 773.437 103.971 731.706 62.2396 685.156C25.7813 644.466 -1.82291 598.958 0.0651124 565.169C0.716154 553.841 3.38543 543.099 7.7474 532.943C11.9792 523.112 17.7734 513.737 24.9349 504.818C25.2604 504.427 25.5859 504.036 25.9766 503.646L145.964 379.557C144.531 349.219 145.833 320.312 149.609 292.904C153.906 261.979 161.458 232.813 172.005 205.273C182.357 178.451 197.721 148.112 217.122 119.922C233.854 95.7031 253.646 72.7865 275.977 54.6224C294.336 39.7135 324.805 23.112 354.818 16.6016C379.492 11.1979 404.427 12.4349 423.893 25.9766H423.958C442.057 38.5417 446.419 58.2682 442.839 80.9245C461.849 66.862 481.185 56.9662 500.846 51.237C542.057 39.1276 583.789 44.987 625.391 67.7083C637.695 74.4141 649.87 82.487 661.784 91.9271C688.802 113.216 723.177 148.177 750.521 185.742C772.917 216.536 790.82 249.479 796.68 278.906C802.995 310.742 800.26 343.424 788.021 376.953C776.172 409.505 755.339 442.773 725.195 476.758C725.065 476.953 724.87 477.083 724.74 477.279C711.133 491.341 697.331 504.427 683.268 516.667C669.271 528.841 654.622 540.56 639.323 551.888C609.049 574.284 581.12 592.904 551.432 607.878C521.419 623.047 489.648 634.44 452.018 642.187C440.104 644.661 428.385 646.549 417.057 647.982C408.203 648.958 399.154 649.74 389.909 650.26Z" fill="white"/>
</g>
<defs>
<clipPath id="clip0_6_2">
<rect width="800" height="800" fill="white"/>
</clipPath>
</defs>
</svg>
