<svg width="64" height="64" viewBox="0 0 64 64" fill="none" xmlns="http://www.w3.org/2000/svg">
<g clip-path="url(#clip0_5_6)">
<path d="M63.9 58.3L45.9 27.3C45.7 27 45.3 26.7 44.9 26.7C44.5 26.7 44.1 26.9 43.9 27.3L35.9 41.2L31.1 32.9C31.1 32.8 31 32.8 31 32.7L24 20.4C23.6 19.7 22.5 19.7 22.1 20.4L15.1 32.6C15 32.7 14.9 32.9 14.8 33L0.100012 58.3C-0.0999878 58.6 -0.0999878 59.1 0.100012 59.4C0.300012 59.7 0.700012 60 1.10001 60H45H62.9C63.3 60 63.7 59.8 63.9 59.4C64 59.1 64 58.7 63.9 58.3ZM45 30.1L48.7 36.5L47.5 37.7L45.6 35.8C45.2 35.4 44.5 35.4 44 35.8L42.2 37.6L41.2 36.6L45 30.1ZM23 23.1L28.8 33.1L26.6 35.3L23.5 32.2C23.1 31.8 22.4 31.8 21.9 32.2L19.1 35L17.2 33.1L23 23.1ZM16.1 35.1L18.4 37.4C18.8 37.8 19.5 37.8 20 37.4L22.8 34.6L25.9 37.7C26.1 37.9 26.4 38 26.7 38C27 38 27.3 37.9 27.5 37.7L30.1 35.1L43 57.5L43.2 57.8H3.00001L16.1 35.1ZM45.6 57.8L37.3 43.4L40.1 38.5L41.5 39.9C41.9 40.3 42.6 40.3 43.1 39.9L44.9 38.1L46.8 40C47 40.2 47.3 40.3 47.6 40.3C47.9 40.3 48.2 40.2 48.4 40L49.9 38.5L61 57.8H45.6Z" fill="white"/>
<path d="M39.1 16.6C41.1 16.6 42.7 15 42.7 13C42.7 11 41.1 9.40002 39.1 9.40002C37.1 9.40002 35.5 11 35.5 13C35.5 15 37.1 16.6 39.1 16.6ZM39.1 11.6C39.9 11.6 40.5 12.2 40.5 13C40.5 13.8 39.9 14.4 39.1 14.4C38.3 14.4 37.7 13.8 37.7 13C37.7 12.2 38.4 11.6 39.1 11.6Z" fill="white"/>
<path d="M39.1 8.1C39.7 8.1 40.2 7.6 40.2 7V5.1C40.2 4.5 39.7 4 39.1 4C38.5 4 38 4.5 38 5.1V7C38 7.6 38.5 8.1 39.1 8.1Z" fill="white"/>
<path d="M38 19V20.9C38 21.5 38.5 22 39.1 22C39.7 22 40.2 21.5 40.2 20.9V19C40.2 18.4 39.7 17.9 39.1 17.9C38.5 17.9 38 18.4 38 19Z" fill="white"/>
<path d="M44 13C44 13.6 44.5 14.1 45.1 14.1H47C47.6 14.1 48.1 13.6 48.1 13C48.1 12.4 47.6 11.9 47 11.9H45.1C44.5 11.9 44 12.4 44 13Z" fill="white"/>
<path d="M31.2 14.1H33.1C33.7 14.1 34.2 13.6 34.2 13C34.2 12.4 33.7 11.9 33.1 11.9H31.2C30.6 11.9 30.1 12.4 30.1 13C30.1 13.6 30.6 14.1 31.2 14.1Z" fill="white"/>
<path d="M43.4 9.89999C43.7 9.89999 44 9.79999 44.2 9.59999L45.6 8.19999C46 7.79999 46 7.09999 45.6 6.59999C45.2 6.19999 44.5 6.19999 44 6.59999L42.6 7.99999C42.2 8.39999 42.2 9.09999 42.6 9.59999C42.8 9.79999 43.1 9.89999 43.4 9.89999Z" fill="white"/>
<path d="M34.1 16.5L32.7 17.9C32.3 18.3 32.3 19 32.7 19.5C32.9 19.7 33.2 19.8 33.5 19.8C33.8 19.8 34.1 19.7 34.3 19.5L35.7 18.1C36.1 17.7 36.1 17 35.7 16.5C35.2 16 34.5 16 34.1 16.5Z" fill="white"/>
<path d="M42.6 16.5C42.2 16.9 42.2 17.6 42.6 18.1L44 19.5C44.2 19.7 44.5 19.8 44.8 19.8C45.1 19.8 45.4 19.7 45.6 19.5C46 19.1 46 18.4 45.6 17.9L44.2 16.5C43.7 16 43 16 42.6 16.5Z" fill="white"/>
<path d="M34.1 9.59999C34.3 9.79999 34.6 9.89999 34.9 9.89999C35.2 9.89999 35.5 9.79999 35.7 9.59999C36.1 9.19999 36.1 8.49999 35.7 7.99999L34.3 6.59999C33.9 6.19999 33.2 6.19999 32.7 6.59999C32.3 6.99999 32.3 7.69999 32.7 8.19999L34.1 9.59999Z" fill="white"/>
</g>
<defs>
<clipPath id="clip0_5_6">
<rect width="64" height="64" fill="white"/>
</clipPath>
</defs>
</svg>
